<?xml version="1.0" standalone="no"?>
<!DOCTYPE svg PUBLIC "-//W3C//DTD SVG 20010904//EN"
 "http://www.w3.org/TR/2001/REC-SVG-20010904/DTD/svg10.dtd">
<svg version="1.0" xmlns="http://www.w3.org/2000/svg"
 width="900.000000pt" height="447.000000pt" viewBox="0 0 900.000000 447.000000"
 preserveAspectRatio="xMidYMid meet">

<g transform="translate(0.000000,447.000000) scale(0.100000,-0.100000)"
fill="#000000" stroke="none">
<path d="M2550 3920 c-131 -17 -227 -71 -301 -171 -56 -73 -74 -136 -74 -254
0 -87 3 -106 24 -145 13 -25 30 -57 38 -72 8 -15 39 -49 69 -77 43 -39 73 -57
137 -78 l82 -28 1975 0 1975 0 82 28 c93 31 174 96 214 170 12 23 29 56 38 72
23 44 22 213 -2 283 -39 112 -144 214 -262 253 l-70 24 -1935 1 c-1064 1
-1960 -2 -1990 -6z m3972 -87 c60 -27 127 -94 158 -158 20 -41 25 -65 25 -135
0 -79 -3 -90 -36 -150 -23 -43 -52 -78 -84 -102 -98 -74 76 -69 -2135 -66
l-1985 3 -50 24 c-258 127 -240 500 28 593 49 17 152 17 2042 15 l1990 -2 47
-22z"/>
<path d="M2491 2634 c-74 -16 -147 -60 -216 -131 -59 -61 -68 -79 -94 -184
-17 -72 -19 -95 -10 -150 26 -173 155 -308 327 -344 100 -22 3904 -22 4004 0
172 36 301 171 327 344 9 55 7 78 -10 150 -26 105 -35 123 -94 184 -71 73
-141 115 -221 132 -101 21 -3914 21 -4013 -1z m4031 -81 c60 -27 127 -94 158
-158 20 -41 25 -65 25 -135 0 -79 -3 -90 -36 -150 -23 -43 -52 -78 -84 -102
-98 -74 76 -69 -2135 -66 l-1985 3 -50 24 c-258 127 -240 500 28 593 49 17
152 17 2042 15 l1990 -2 47 -22z"/>
<path d="M2492 1355 c-93 -20 -215 -104 -261 -178 -34 -56 -64 -157 -64 -221
0 -66 31 -179 63 -230 46 -74 176 -162 266 -181 104 -22 3904 -22 4008 0 90
19 220 107 266 181 32 51 63 164 63 230 0 64 -30 165 -64 221 -47 76 -168 157
-265 178 -100 21 -3915 21 -4012 0z m4030 -82 c60 -27 127 -94 158 -158 20
-41 25 -65 25 -135 0 -79 -3 -90 -36 -150 -23 -43 -52 -78 -84 -102 -98 -74
76 -69 -2135 -66 l-1985 3 -50 24 c-258 127 -240 500 28 593 49 17 152 17
2042 15 l1990 -2 47 -22z"/>
</g>
</svg>
